<!--Scalable Vector Graphic-->
<svg 
    t="1735730633723" 
    class="icon" 
    viewBox="0 0 1024 1024" 
    version="1.1" 
    xmlns="http://www.w3.org/2000/svg" 
    p-id="4328" 
    width="200" 
    height="200"
>
    <path 
        d="M626.5472 395.7888c-13.9008 0-25.1776 11.5968-25.1776 25.9072s11.2768 25.92 25.1776 25.92 25.1648-11.6096 25.1648-25.92-11.264-25.9072-25.1648-25.9072z m-108.16-293.1456c-204.8 0-374.6688 152.4864-409.3312 353.1392l-1.4464-1.3568v11.1232c-3.2128 21.4784-5.3888 43.3024-5.3888 65.7152 0 236.7104 186.3296 428.608 416.1792 428.608s416.1792-191.8976 416.1792-428.608C934.5664 294.528 748.2368 102.6432 518.3872 102.6432z m0 46.3488c38.6816 0 75.968 6.1184 111.0272 17.4208-72.8576 13.5936-134.4896 37.3632-186.5728 67.5584a43.2896 43.2896 0 0 0-26.0224-8.7808c-11.2896 0-21.4784 4.4672-29.3248 11.5712a794.1376 794.1376 0 0 0-73.92-24.2048c58.7136-40.0896 129.0752-63.5648 204.8128-63.5648zM165.7216 650.0224a391.808 391.808 0 0 1-18.496-118.7712c0-3.6608 0.4352-7.2064 0.5376-10.8288 6.9376 5.7088 14.5408 11.7888 23.2064 18.3296a46.2848 46.2848 0 0 0 14.3744 32.6784 676.352 676.352 0 0 0-19.6224 78.592z m13.376-138.7776a803.6992 803.6992 0 0 1-29.5808-21.6704c10.7264-101.8624 60.224-191.7312 133.0688-253.5424a930.88 930.88 0 0 1 90.4832 26.4448 46.72 46.72 0 0 0-0.8448 8.6272c0 3.9168 0.6144 7.6416 1.5104 11.264-76.6336 62.8608-126.3616 139.5712-158.0288 209.4208l-0.2432-0.0256c-15.04 0.0128-28.2752 7.7312-36.3648 19.4816z m43.7632 250.6112a383.872 383.872 0 0 1-33.9072-54.9376c6.1696-44.8 15.1168-85.76 26.3424-123.2512l0.1792 0.0128c5.9136 0 11.5456-1.2416 16.7168-3.4048a800.3072 800.3072 0 0 0 58.3936 32.5248c-1.0624 4.4416-1.792 9.0112-1.792 13.7984 0 6.3232 1.2288 12.3008 3.0592 17.9968-39.104 51.328-60.2112 96.1664-68.992 117.2608z m295.5264 151.6544c-105.536 0-200.5632-45.5936-268.1472-118.4128 16.2944-45.8624 37.4016-86.272 62.4512-121.3056a54.592 54.592 0 0 0 32.2176 10.5856c20.5952 0 38.4-11.5456 48.1664-28.5696a791.3216 791.3216 0 0 0 156.9152 35.9936c0.6656 41.536 5.8112 86.2848 16.384 134.2464a31.1296 31.1296 0 0 0-15.3984 26.9568c0 17.1904 13.5296 31.1168 30.1952 31.1168 0.128 0 0.256-0.0384 0.3712-0.0384 2.2144 7.3984 4.5312 14.8608 6.9504 22.3872-22.72 4.4928-46.1184 7.04-70.1056 7.04z m191.744-55.4112a363.1104 363.1104 0 0 1-94.1568 41.6128c-3.0848-10.6496-4.7616-11.2896-7.3984-21.6064 2.4704-4.5184 11.2-22.0032 11.2-27.5456 0-10.7776-13.7088-22.7328-21.7984-28.3136-9.7536-47.6032-14.6048-86.656-15.3344-127.104 32.768 2.6752 67.0336 3.4176 102.7328 1.8304a56.9984 56.9984 0 0 0 40.0256 44.3136 595.5584 595.5584 0 0 1-15.2704 116.8128z m33.4592-23.4752a610.5088 610.5088 0 0 0 15.2192-94.4384c21.9008-7.872 37.696-29.1072 37.696-54.336 0-0.3584-0.0896-0.704-0.0896-1.0496 22.0032-3.84 44.5952-8.9088 67.4816-14.656a381.824 381.824 0 0 1-120.3072 164.48z m44.7616-178.3936a56.0256 56.0256 0 0 0-32.4992-25.6768 414.0928 414.0928 0 0 0-43.3792-133.0432 111.1936 111.1936 0 0 1-27.8016 25.152 455.9488 455.9488 0 0 1 33.3824 110.208c-13.952 6.2464-24.8064 18.2272-30.1312 33.0112a809.1776 809.1776 0 0 1-105.0624-3.4944c1.6896-46.7968 8.9472-88.4992 19.84-125.7088a107.1872 107.1872 0 0 1-29.3632-11.6864 521.9072 521.9072 0 0 0-22.912 133.5424A824.96 824.96 0 0 1 400.64 622.8864a58.1632 58.1632 0 0 0-12.096-32.1792c47.0016-40.8576 99.5968-71.3216 152.6656-94.0288a113.3184 113.3184 0 0 1-18.368-35.2c-67.6608 30.6816-121.8176 69.4016-164.288 109.2608a53.5552 53.5552 0 0 0-13.6576-1.9328 54.9632 54.9632 0 0 0-38.6688 16.0768 886.2592 886.2592 0 0 1-51.2128-26.304 46.4768 46.4768 0 0 0 5.0688-20.8512 46.2336 46.2336 0 0 0-15.2064-34.304c38.5024-86.6304 90.1376-149.9776 144.704-196.1856 7.552 6.0544 16.9216 9.8048 27.2256 9.8048 15.6672 0 29.3888-8.3712 37.3504-20.9792 34.4576 16.9344 64.6272 35.6224 91.1872 55.5392a110.6048 110.6048 0 0 1 20.8256-18.8288c-34.9056-25.728-70.9376-46.8096-104.9728-63.7312a46.4256 46.4256 0 0 0-2.0224-11.5456c91.7888-54.8736 178.816-69.8624 213.0432-73.8432a370.7904 370.7904 0 0 1 102.5152 71.5648c-19.4432 12.9152-53.1712 37.9008-88.7808 76.1984a110.8224 110.8224 0 0 1 24.0128 21.3504c35.1488-35.7376 69.2864-58.1632 90.0992-70.0416a384.064 384.064 0 0 1 66.2912 116.5184 911.7824 911.7824 0 0 0-131.6736 5.2992c1.3696 7.1424 2.1248 14.528 2.1248 22.0928 0 5.3888-0.4992 10.6496-1.2032 15.8336 63.5392-9.8688 115.0848-11.2896 140.672-11.2256 8.384 31.9232 13.2736 65.3312 13.2736 100.0064 0 37.0048-5.376 72.6656-14.8992 106.496a866.688 866.688 0 0 1-86.2976 18.4832zM626.5472 345.1776c-43.0208 0-77.9008 35.9168-77.9008 80.2304s34.88 80.2432 77.9008 80.2432 77.9008-35.9296 77.9008-80.2432-34.8672-80.2304-77.9008-80.2304z m0 132.3776c-27.968 0-50.624-23.3472-50.624-52.1472 0-28.7872 22.6688-52.1472 50.624-52.1472s50.6368 23.36 50.6368 52.1472c0 28.7872-22.6688 52.1472-50.6368 52.1472z"
        fill="#1296db" 
        p-id="4329"
    ></path>
</svg>
